<svg id="Слой_1" data-name="Слой 1" xmlns="http://www.w3.org/2000/svg" width="126.949mm" height="60.35mm" viewBox="0 0 359.855 171.072">
  <title>LOGO02</title>
  <g>
    <path d="M165.922,206.6h49.313c19.6.728,24.963,12.263,24.966,26.93v9.024h-.011l.011,0c0,14.666-5.362,26.2-24.966,26.932H145.313V251.5h74.28V224.6H170.274c-19.6-.73-24.961-12.266-24.961-26.932h.027l-.027,0V161.691H240.2v17.993H165.922Z" transform="translate(-144.665 -161.69)"/>
    <path d="M255.729,269.5V161.69h20.609V269.5Z" transform="translate(-144.665 -161.69)"/>
    <path d="M393.872,161.693,360.639,269.5H325.152l-33.234-107.8H313.4L341.091,251.5H344.7l27.688-89.809Z" transform="translate(-144.665 -161.69)"/>
    <path d="M430.028,179.683v26.922H483.7V224.6H430.028v26.9H504.3V269.5H409.419V161.69H504.3v17.993Z" transform="translate(-144.665 -161.69)"/>
  </g>
  <g>
    <path d="M150.712,294.141V307.97h21.1c8.02.3,10.213,5.017,10.213,11.018v2.748l-.081.008h.081c0,6-2.193,10.722-10.213,11.018H144.665v-5.481h31.312v-13.83h-21.1c-8.021-.3-10.213-5.017-10.213-11.018v-2.754c0-6,2.192-10.721,10.213-11.019h27.147v5.481Z" transform="translate(-144.665 -161.69)"/>
    <path d="M226.241,299.679h.01v22.066c0,6-2.194,10.721-10.214,11.017H199.1c-8.021-.3-10.214-5.017-10.214-11.018V299.679c0-6,2.193-10.721,10.214-11.019h16.933c8.021.3,10.214,5.017,10.214,11.019Zm-6.038-5.538H194.938V327.28H220.2Z" transform="translate(-144.665 -161.69)"/>
    <path d="M270.476,327.28v5.481h-37.36v-44.1h6.049V327.28Z" transform="translate(-144.665 -161.69)"/>
    <path d="M314.7,288.659v33.087c0,6-2.194,10.72-10.213,11.016H287.555c-8.021-.3-10.213-5.017-10.213-11.018V288.657h6.047V327.28h25.265V288.659Z" transform="translate(-144.665 -161.69)"/>
    <path d="M358.927,294.141H343.27v38.62h-6.047v-38.62H321.567V288.66h37.36Z" transform="translate(-144.665 -161.69)"/>
    <path d="M365.793,332.761v-44.1h6.047v44.1Z" transform="translate(-144.665 -161.69)"/>
    <path d="M416.058,299.679h.01v22.066c0,6-2.194,10.721-10.213,11.017H388.921c-8.021-.3-10.213-5.017-10.213-11.018V299.679c0-6,2.192-10.721,10.213-11.019h16.934c8.021.3,10.213,5.017,10.213,11.019Zm-6.038-5.538H384.755V327.28H410.02Z" transform="translate(-144.665 -161.69)"/>
    <path d="M460.294,288.659v44.1h-6.048c-6.278,0-8.125-5.509-10.813-11.018l-13.476-27.6h-.976v38.62h-6.048v-44.1h6.048c6.278,0,8.125,5.51,10.813,11.018l13.476,27.6h.976V288.659Z" transform="translate(-144.665 -161.69)"/>
    <path d="M473.206,294.141V307.97h21.1c8.02.3,10.213,5.017,10.213,11.018v2.748l-.081.008h.081c0,6-2.193,10.722-10.213,11.018H467.159v-5.481h31.312v-13.83h-21.1c-8.021-.3-10.213-5.017-10.213-11.018v-2.754c0-6,2.192-10.721,10.213-11.019H504.52v5.481Z" transform="translate(-144.665 -161.69)"/>
  </g>
</svg>
