<?xml version="1.0" encoding="utf-8"?>
<!-- Generator: Adobe Illustrator 23.0.0, SVG Export Plug-In . SVG Version: 6.00 Build 0)  -->
<svg version="1.1" id="Слой_1" xmlns="http://www.w3.org/2000/svg" xmlns:xlink="http://www.w3.org/1999/xlink" x="0px" y="0px"
	 viewBox="0 0 976.56 301.18" style="enable-background:new 0 0 976.56 301.18;" xml:space="preserve">
<g>
	<path d="M95.28,168.61l18.23-1.79c1.01,7.16,6.82,11.85,14.76,11.85c8.16,0,13.2-4.14,13.2-11.52c0-7.72-6.15-11.18-13.08-11.18
		c-5.48,0-10.85,2.01-15.43,6.49l-15.77-7.83L103,115.6h50.44v16.1h-30.31l-6.82-0.22l-0.56,4.7l-1.01,5.82l-1.68,6.15l1.12,0.56
		c4.47-3.8,10.96-6.15,19.57-6.15c12.08,0,25.61,7.27,25.61,24.94c0,16.55-12.64,26.39-31.09,26.39
		C111.84,193.89,97.3,185.27,95.28,168.61z"/>
	<path d="M167.75,168.39l18.12-1.57c1.57,8.05,8.28,12.08,16.89,12.08c9.17,0,14.2-3.58,14.2-8.39c0-4.58-2.91-6.82-11.18-7.94
		l-13.2-1.9c-14.76-2.13-23.26-10.07-23.26-22.03c0-13.98,12.53-24.16,30.75-24.16c17.56,0,30.75,8.05,31.42,26.95l-17.33,1.23
		c-0.78-8.61-6.15-12.75-14.09-12.75c-7.83,0-12.86,3.69-12.86,8.72c0,4.03,2.68,6.15,8.5,7.05l15.43,2.24
		c14.09,2.01,23.71,8.39,23.71,22.48c0,14.76-12.64,24.04-32.21,24.04C184.53,194.44,170.32,185.95,167.75,168.39z"/>
	<path d="M239.78,154.41c0-23.37,13.31-39.92,37.69-39.92s37.35,16.55,37.35,39.92c0,23.93-12.97,40.04-37.35,40.04
		S239.78,178.34,239.78,154.41z M296.47,154.3c0-13.87-6.37-24.04-19.01-24.04c-12.75,0-19.35,10.18-19.35,24.04
		c0,14.43,6.6,24.49,19.35,24.49C290.1,178.79,296.47,168.72,296.47,154.3z"/>
	<path d="M322.65,115.6h18.23v46.07l-0.34,16.1l16.1-0.34h24.04v15.88h-58.04V115.6z"/>
	<path d="M385.61,160.11V115.6h18.23v44.29c0,13.2,7.27,18.34,17.56,18.34c9.95,0,17.11-5.14,17.11-18.34V115.6h18.23v44.51
		c0,22.93-14.2,34.33-35.34,34.33C400.15,194.44,385.61,183.04,385.61,160.11z"/>
	<path d="M488.72,147.25l0.34-16.22l-13.42,0.34h-12.86V115.6h70.12v15.77h-12.86l-13.42-0.34l0.34,16.22v46.07h-18.23V147.25z"/>
	<path d="M539.49,115.6h18.23v77.72h-18.23V115.6z"/>
	<path d="M565.55,154.41c0-23.37,13.31-39.92,37.69-39.92c24.38,0,37.35,16.55,37.35,39.92c0,23.93-12.97,40.04-37.35,40.04
		C578.86,194.44,565.55,178.34,565.55,154.41z M622.25,154.3c0-13.87-6.38-24.04-19.01-24.04c-12.75,0-19.35,10.18-19.35,24.04
		c0,14.43,6.6,24.49,19.35,24.49C615.87,178.79,622.25,168.72,622.25,154.3z"/>
	<path d="M648.42,115.6h23.26l22.48,40.82l6.15,13.08h1.9l-0.67-12.41V115.6h18v77.72h-23.26l-24.38-43.84l-4.25-10.06h-1.9
		l0.67,12.41v41.49h-18V115.6z"/>
	<path d="M727.71,168.39l18.12-1.57c1.57,8.05,8.28,12.08,16.89,12.08c9.17,0,14.2-3.58,14.2-8.39c0-4.58-2.91-6.82-11.18-7.94
		l-13.2-1.9c-14.76-2.13-23.26-10.07-23.26-22.03c0-13.98,12.52-24.16,30.75-24.16c17.56,0,30.75,8.05,31.42,26.95l-17.33,1.23
		c-0.78-8.61-6.15-12.75-14.09-12.75c-7.83,0-12.86,3.69-12.86,8.72c0,4.03,2.68,6.15,8.5,7.05l15.43,2.24
		c14.09,2.01,23.71,8.39,23.71,22.48c0,14.76-12.64,24.04-32.21,24.04C744.49,194.44,730.28,185.95,727.71,168.39z"/>
	<path d="M802.98,135.11c0-16.17,12.32-29.26,29.26-29.26s29.26,13.09,29.26,29.26s-12.32,29.26-29.26,29.26
		S802.98,151.28,802.98,135.11z M854.1,135.11c0-12.32-8.78-22.33-21.87-22.33c-13.17,0-21.94,10.01-21.94,22.33
		s8.78,22.33,21.94,22.33C845.32,157.44,854.1,147.43,854.1,135.11z M820.15,118.87h13.24c7.47,0,12.01,2.85,12.01,8.93
		c0,5.54-3.93,7.55-8.08,7.85v0.38c3.16,0.62,4.62,2.46,5.54,4.62c0.92,2.39,1.69,5.47,2.93,10.32h-6.7
		c-0.92-6.01-2.08-12.7-7.31-12.7H830l-3.31-0.08l0.08,5.08v7.7h-6.62V118.87z M830.62,132.57h2.93c3.16,0,4.93-1.54,4.93-3.93
		c0-2.62-1.92-3.93-4.93-3.93h-2.93l-3.77-0.15v8.08L830.62,132.57z"/>
</g>
</svg>
