<?xml version="1.0" encoding="utf-8"?>
<!-- Generator: Adobe Illustrator 23.0.0, SVG Export Plug-In . SVG Version: 6.00 Build 0)  -->
<svg version="1.1" id="Слой_1" xmlns="http://www.w3.org/2000/svg" xmlns:xlink="http://www.w3.org/1999/xlink" x="0px" y="0px"
	 viewBox="0 0 244.73 34.48" style="enable-background:new 0 0 244.73 34.48;" xml:space="preserve">
<g>
	<path d="M2.95,22.61l5.87-0.58c0.4,2.3,2.27,3.82,4.75,3.82c2.63,0,4.28-1.22,4.28-3.63c0-2.56-2.02-3.67-4.25-3.67
		c-1.76,0-3.49,0.65-4.97,2.09l-5.08-2.52L5.44,5.55h16.23v5.18h-9.75l-2.2-0.07l-0.18,1.51l-0.32,1.87L8.64,16.1L9,16.28
		c1.4-1.26,3.56-2.05,6.33-2.05c3.89,0,8.28,2.34,8.28,8.1c0,5.36-4.14,8.42-10.04,8.42C8.28,30.75,3.6,27.97,2.95,22.61z"/>
	<path d="M25.56,22.54l5.83-0.5c0.5,2.59,2.66,3.89,5.44,3.89c2.95,0,4.57-1.15,4.57-2.7c0-1.48-0.94-2.2-3.6-2.56l-4.25-0.61
		c-4.75-0.68-7.49-3.24-7.49-7.09c0-4.5,4.03-7.78,9.9-7.78c5.65,0,9.9,2.59,10.11,8.67l-5.58,0.4c-0.25-2.77-1.98-4.1-4.54-4.1
		c-2.52,0-4.14,1.19-4.14,2.81c0,1.3,0.86,1.98,2.74,2.27l4.97,0.72c4.54,0.65,7.63,2.7,7.63,7.24c0,4.75-4.07,7.74-10.37,7.74
		C30.96,30.93,26.39,28.19,25.56,22.54z"/>
	<path d="M48.74,18.04c0-7.52,4.28-12.85,12.13-12.85S72.9,10.52,72.9,18.04c0,7.7-4.18,12.89-12.02,12.89S48.74,25.74,48.74,18.04z
		 M66.99,18c0-4.46-2.05-7.74-6.12-7.74c-4.1,0-6.23,3.28-6.23,7.74c0,4.64,2.12,7.88,6.23,7.88C64.94,25.89,66.99,22.65,66.99,18z"
		/>
	<path d="M75.42,5.55h5.87v14.83l-0.11,5.18l5.18-0.11h7.74v5.11H75.42V5.55z"/>
	<path d="M95.69,19.88V5.55h5.87V19.8c0,4.25,2.34,5.9,5.65,5.9c3.2,0,5.51-1.66,5.51-5.9V5.55h5.87v14.33
		c0,7.38-4.57,11.05-11.37,11.05C100.37,30.93,95.69,27.26,95.69,19.88z"/>
	<path d="M128.88,15.74l0.11-5.22l-4.32,0.11h-4.14V5.55h22.57v5.08h-4.14l-4.32-0.11l0.11,5.22v14.83h-5.87V15.74z"/>
	<path d="M145.22,5.55h5.87v25.02h-5.87V5.55z"/>
	<path d="M153.61,18.04c0-7.52,4.28-12.85,12.13-12.85s12.02,5.33,12.02,12.85c0,7.7-4.18,12.89-12.02,12.89
		S153.61,25.74,153.61,18.04z M171.86,18c0-4.46-2.05-7.74-6.12-7.74c-4.1,0-6.23,3.28-6.23,7.74c0,4.64,2.12,7.88,6.23,7.88
		C169.81,25.89,171.86,22.65,171.86,18z"/>
	<path d="M180.29,5.55h7.49l7.23,13.14l1.98,4.21h0.61l-0.22-4V5.55h5.8v25.02h-7.49l-7.85-14.11l-1.37-3.24h-0.61l0.22,4v13.35
		h-5.79V5.55z"/>
	<path d="M205.81,22.54l5.83-0.5c0.5,2.59,2.66,3.89,5.44,3.89c2.95,0,4.57-1.15,4.57-2.7c0-1.48-0.94-2.2-3.6-2.56l-4.25-0.61
		c-4.75-0.68-7.49-3.24-7.49-7.09c0-4.5,4.03-7.78,9.9-7.78c5.65,0,9.9,2.59,10.11,8.67l-5.58,0.4c-0.25-2.77-1.98-4.1-4.54-4.1
		c-2.52,0-4.14,1.19-4.14,2.81c0,1.3,0.86,1.98,2.74,2.27l4.97,0.72c4.54,0.65,7.63,2.7,7.63,7.24c0,4.75-4.07,7.74-10.37,7.74
		C211.21,30.93,206.64,28.19,205.81,22.54z"/>
</g>
<rect x="319.1" y="59.83" style="fill:none;" width="0" height="10.14"/>
<g>
	<path d="M227.89,10.02c0-4.39,3.35-7.95,7.95-7.95s7.95,3.56,7.95,7.95s-3.35,7.95-7.95,7.95S227.89,14.42,227.89,10.02z
		 M241.78,10.02c0-3.35-2.39-6.07-5.94-6.07c-3.58,0-5.96,2.72-5.96,6.07s2.38,6.07,5.96,6.07
		C239.39,16.09,241.78,13.37,241.78,10.02z M232.55,5.61h3.6c2.03,0,3.26,0.77,3.26,2.43c0,1.51-1.07,2.05-2.2,2.13v0.1
		c0.86,0.17,1.25,0.67,1.51,1.26c0.25,0.65,0.46,1.49,0.8,2.8h-1.82c-0.25-1.63-0.56-3.45-1.99-3.45h-0.48l-0.9-0.02l0.02,1.38v2.09
		h-1.8V5.61z M235.4,9.33h0.79c0.86,0,1.34-0.42,1.34-1.07c0-0.71-0.52-1.07-1.34-1.07h-0.79l-1.02-0.04v2.2L235.4,9.33z"/>
</g>
</svg>
