<?xml version="1.0" standalone="no"?>
<!DOCTYPE svg PUBLIC "-//W3C//DTD SVG 20010904//EN"
 "http://www.w3.org/TR/2001/REC-SVG-20010904/DTD/svg10.dtd">
<svg version="1.0" xmlns="http://www.w3.org/2000/svg"
 width="1229.000000pt" height="1229.000000pt" viewBox="0 0 1229.000000 1229.000000"
 preserveAspectRatio="xMidYMid meet">
<metadata>
Created by potrace 1.11, written by Peter Selinger 2001-2013
</metadata>
<g transform="translate(0.000000,1229.000000) scale(0.100000,-0.100000)"
fill="#000000" stroke="none">
<path d="M11295 9399 c-27 -4 -62 -10 -77 -13 -16 -3 -38 -8 -50 -11 -46 -9
-155 -56 -213 -92 -132 -80 -242 -198 -314 -335 -71 -135 -101 -272 -96 -443
8 -289 150 -549 384 -700 67 -44 190 -99 241 -109 14 -2 46 -9 72 -15 26 -6
85 -12 130 -13 265 -7 476 72 648 242 116 114 167 195 214 340 14 41 28 91 31
110 3 19 7 48 10 64 7 49 8 157 0 221 -45 387 -332 686 -722 751 -54 9 -199
11 -258 3z m241 -164 c176 -27 343 -133 443 -278 217 -315 151 -770 -143 -991
-221 -167 -525 -186 -775 -50 -35 19 -69 41 -76 48 -7 7 -26 23 -42 37 -89 75
-175 222 -208 354 -19 76 -25 219 -12 303 11 77 51 186 97 264 140 235 424
360 716 313z"/>
<path d="M11052 9040 c-4 -3 -8 -230 -7 -505 l0 -500 78 -1 c51 -1 77 2 78 10
1 6 1 100 1 209 l0 197 119 0 c130 0 168 -10 212 -54 47 -47 79 -127 127 -322
l10 -41 79 0 78 -1 -33 114 c-79 264 -117 322 -229 352 -28 8 -25 9 35 21 139
27 205 102 209 238 4 146 -68 237 -219 273 -55 13 -522 22 -538 10z m518 -155
c44 -27 71 -64 77 -110 7 -52 -3 -96 -31 -127 -41 -49 -82 -58 -254 -61 l-157
-2 -1 162 0 162 166 -3 c144 -2 171 -4 200 -21z"/>
<path d="M7909 9207 c-2 -3 -47 -7 -99 -11 -52 -3 -106 -8 -120 -10 -14 -3
-47 -7 -75 -10 -27 -3 -61 -8 -75 -11 -14 -3 -52 -10 -85 -16 -245 -43 -535
-142 -755 -257 -84 -44 -291 -175 -320 -203 -8 -8 -32 -27 -54 -43 -21 -16
-82 -72 -135 -125 -215 -213 -376 -485 -450 -760 -24 -88 -25 -91 -36 -161 -4
-25 -10 -54 -12 -65 -10 -38 -11 -390 -2 -450 5 -33 12 -76 14 -95 3 -19 14
-71 25 -115 89 -376 317 -692 670 -929 102 -69 324 -181 435 -220 44 -15 89
-32 100 -36 23 -10 211 -64 265 -76 19 -4 40 -9 45 -10 26 -7 286 -53 330 -59
28 -3 59 -8 70 -9 11 -2 45 -7 75 -11 30 -4 64 -9 75 -11 11 -3 40 -7 65 -10
25 -2 56 -7 70 -9 14 -2 153 -23 310 -45 378 -54 366 -53 465 -69 531 -89 751
-273 739 -619 -4 -141 -50 -245 -152 -349 -142 -145 -325 -223 -647 -278 -153
-25 -436 -25 -615 1 -89 13 -263 60 -345 94 -266 108 -460 280 -582 516 -41
79 -99 237 -106 291 -4 26 -7 28 -48 27 -49 -1 -210 -13 -249 -19 -14 -2 -65
-7 -115 -10 -49 -4 -103 -8 -120 -10 -16 -2 -66 -7 -110 -10 -44 -3 -96 -8
-115 -10 -19 -2 -73 -6 -120 -10 -47 -3 -101 -8 -120 -10 -19 -2 -71 -7 -115
-10 -44 -4 -91 -8 -105 -10 -14 -1 -68 -6 -120 -10 -52 -4 -98 -9 -101 -11
-15 -9 75 -381 126 -519 148 -401 409 -753 740 -996 33 -24 64 -48 70 -52 5
-5 26 -18 45 -30 19 -11 60 -36 90 -55 85 -53 324 -165 435 -205 161 -57 376
-117 475 -132 14 -2 50 -8 80 -14 86 -16 102 -19 176 -26 38 -4 77 -9 87 -11
97 -17 580 -24 757 -11 576 45 1071 195 1435 435 163 108 329 259 437 397 269
345 387 775 345 1255 -14 158 -62 378 -103 467 -8 17 -14 34 -14 38 0 4 -22
52 -50 107 -192 384 -544 658 -1065 830 -49 16 -97 31 -105 33 -8 1 -40 10
-70 19 -30 8 -66 17 -80 20 -14 2 -43 9 -65 14 -65 18 -249 49 -390 67 -27 3
-57 8 -65 10 -8 2 -39 7 -69 10 -30 4 -61 8 -70 10 -25 4 -92 14 -141 20 -25
3 -52 8 -60 10 -8 2 -35 7 -60 9 -25 3 -124 17 -220 31 -96 14 -193 28 -215
31 -22 3 -65 9 -95 14 -30 5 -71 11 -90 14 -35 5 -131 19 -140 21 -3 1 -18 4
-35 8 -16 4 -39 9 -50 12 -130 29 -213 64 -306 126 -137 92 -200 219 -200 400
0 357 334 627 836 676 175 18 385 5 527 -31 385 -98 626 -344 727 -742 17 -68
33 -169 34 -212 0 -13 100 -12 247 3 25 3 83 7 130 10 47 3 112 7 145 9 33 3
98 8 145 11 47 3 110 8 140 10 30 2 98 7 150 11 52 4 109 8 125 9 47 3 269 18
283 18 9 0 11 23 7 96 -3 53 -8 107 -10 121 -2 14 -6 50 -10 80 -3 30 -9 69
-12 85 -3 17 -7 39 -9 50 -7 48 -35 166 -57 240 -213 707 -724 1170 -1502
1363 -66 17 -140 34 -165 38 -25 4 -47 8 -50 9 -7 2 -97 15 -135 20 -16 2 -52
7 -80 11 -27 3 -65 8 -85 10 -56 5 -566 15 -571 11z"/>
<path d="M643 9122 c-28 -3 -32 -7 -38 -45 -10 -57 -13 -75 -19 -122 -4 -22
-8 -51 -11 -65 -2 -14 -7 -45 -10 -70 -3 -25 -7 -54 -9 -65 -2 -11 -7 -42 -10
-70 -4 -27 -9 -61 -11 -75 -7 -48 -17 -115 -20 -130 -2 -8 -6 -37 -9 -65 -4
-27 -9 -57 -11 -65 -2 -8 -6 -37 -10 -65 -3 -27 -15 -108 -26 -180 -11 -71
-23 -146 -25 -165 -3 -19 -9 -62 -14 -95 -5 -33 -12 -82 -15 -110 -4 -27 -8
-57 -10 -65 -2 -8 -7 -37 -10 -65 -4 -27 -8 -57 -10 -65 -2 -8 -7 -40 -10 -70
-3 -30 -8 -62 -10 -70 -2 -8 -7 -35 -10 -60 -3 -25 -10 -70 -15 -100 -6 -30
-12 -75 -15 -100 -3 -25 -7 -56 -10 -70 -2 -14 -7 -43 -10 -65 -3 -23 -7 -50
-9 -61 -2 -12 -7 -45 -11 -75 -3 -30 -8 -61 -10 -69 -2 -8 -7 -40 -10 -70 -4
-30 -8 -57 -10 -60 -1 -3 -6 -30 -9 -61 -4 -31 -8 -65 -10 -75 -2 -11 -9 -55
-16 -99 -6 -44 -13 -91 -15 -105 -4 -26 -20 -128 -30 -195 -3 -22 -8 -54 -11
-71 l-5 -32 218 -107 c120 -60 401 -199 624 -311 l406 -202 24 22 c155 141
317 253 473 326 88 42 223 93 279 106 9 2 27 6 40 9 215 53 479 64 667 29 496
-92 783 -415 782 -881 -1 -492 -291 -804 -810 -874 -135 -18 -458 -15 -490 5
-4 2 -25 7 -46 10 -58 9 -207 61 -278 97 -212 106 -384 277 -487 485 -44 88
-86 212 -97 280 l-6 44 -47 -5 c-25 -2 -77 -7 -116 -10 -38 -3 -86 -7 -105 -9
-19 -3 -60 -7 -90 -10 -63 -6 -147 -15 -205 -21 -22 -2 -71 -7 -110 -10 -38
-4 -81 -8 -95 -10 -14 -2 -61 -7 -105 -11 -44 -3 -88 -8 -98 -10 -10 -2 -60
-6 -110 -9 -51 -4 -99 -8 -107 -10 -8 -3 -49 -7 -90 -10 -41 -3 -84 -8 -95
-10 -11 -2 -33 -4 -48 -4 -31 -1 -30 10 -11 -116 12 -83 56 -254 90 -355 181
-527 561 -953 1092 -1219 206 -103 488 -203 668 -235 13 -3 32 -7 42 -10 9 -3
35 -7 57 -11 22 -3 65 -10 95 -15 231 -39 483 -51 780 -36 75 3 144 8 155 10
11 2 47 7 80 10 33 4 67 9 75 11 8 2 38 6 65 10 28 3 68 10 90 15 22 5 51 11
65 14 83 15 331 85 375 106 11 5 52 21 90 36 178 68 382 185 545 312 79 62
283 275 342 358 161 225 286 527 324 779 3 22 8 43 9 46 18 28 27 477 13 609
-9 88 -26 204 -32 221 -3 8 -8 26 -11 42 -13 67 -17 86 -37 152 -178 590 -616
1020 -1243 1219 -85 27 -244 64 -310 72 -22 3 -46 7 -53 9 -80 27 -590 26
-752 0 -45 -8 -146 -25 -185 -31 -52 -9 -217 -52 -295 -77 -219 -70 -485 -213
-615 -330 -22 -20 -44 -37 -48 -37 -4 0 -26 9 -48 21 -29 14 -39 25 -35 36 4
8 35 119 71 246 59 207 88 347 132 616 4 25 8 48 8 51 2 6 15 110 21 155 2 17
6 54 10 84 3 30 8 62 9 70 2 9 4 33 4 54 l1 39 213 -7 c325 -11 2718 -12 2725
-1 3 5 6 292 6 638 1 552 -1 628 -14 629 -54 2 -3921 3 -3947 1z"/>
</g>
</svg>
